<svg xmlns="http://www.w3.org/2000/svg" viewBox="0 0 300 200" fill="none">
  <!-- Background circle -->
  <circle cx="150" cy="100" r="80" fill="#d1fae5" opacity="0.5"/>
  <circle cx="150" cy="100" r="60" fill="#a7f3d0" opacity="0.5"/>
  
  <!-- Main circle -->
  <circle cx="150" cy="100" r="45" fill="#10b981"/>
  
  <!-- Checkmark -->
  <path d="M130 100 L145 115 L170 85" stroke="white" stroke-width="6" stroke-linecap="round" stroke-linejoin="round"/>
  
  <!-- Decorative elements -->
  <g opacity="0.3">
    <circle cx="50" cy="50" r="8" fill="#10b981"/>
    <circle cx="250" cy="150" r="12" fill="#10b981"/>
    <circle cx="270" cy="60" r="6" fill="#10b981"/>
    <circle cx="40" cy="160" r="10" fill="#10b981"/>
  </g>
  
  <!-- Stars/sparkles -->
  <g fill="#fbbf24">
    <path d="M80 80 L82 86 L88 88 L82 90 L80 96 L78 90 L72 88 L78 86 Z"/>
    <path d="M220 70 L222 76 L228 78 L222 80 L220 86 L218 80 L212 78 L218 76 Z"/>
    <path d="M240 120 L242 126 L248 128 L242 130 L240 136 L238 130 L232 128 L238 126 Z"/>
  </g>
</svg>
